<svg width="771" height="589" viewBox="0 0 771 589" fill="none" xmlns="http://www.w3.org/2000/svg">
<g clip-path="url(#clip0_607_306)">
<path d="M266.247 228.526L290.857 305.884H291.801L316.46 228.526H340.324L305.225 330.344H277.483L242.334 228.526H266.247ZM352.181 330.344V253.98H373.36V330.344H352.181ZM362.82 244.136C359.672 244.136 356.97 243.092 354.717 241.004C352.496 238.883 351.386 236.348 351.386 233.398C351.386 230.481 352.496 227.979 354.717 225.891C356.97 223.77 359.672 222.709 362.82 222.709C365.969 222.709 368.654 223.77 370.874 225.891C373.128 227.979 374.255 230.481 374.255 233.398C374.255 236.348 373.128 238.883 370.874 241.004C368.654 243.092 365.969 244.136 362.82 244.136ZM480.56 264.172H458.785C458.387 261.355 457.575 258.852 456.348 256.665C455.122 254.444 453.548 252.555 451.625 250.997C449.703 249.44 447.482 248.246 444.964 247.418C442.478 246.589 439.776 246.175 436.86 246.175C431.59 246.175 426.999 247.484 423.089 250.102C419.178 252.688 416.145 256.466 413.991 261.438C411.836 266.376 410.759 272.375 410.759 279.435C410.759 286.693 411.836 292.792 413.991 297.73C416.178 302.669 419.227 306.397 423.138 308.916C427.049 311.435 431.573 312.695 436.711 312.695C439.594 312.695 442.262 312.314 444.715 311.551C447.201 310.789 449.405 309.679 451.327 308.22C453.249 306.729 454.84 304.922 456.1 302.801C457.392 300.68 458.287 298.261 458.785 295.543L480.56 295.642C479.997 300.315 478.588 304.823 476.334 309.165C474.114 313.474 471.114 317.335 467.336 320.749C463.59 324.129 459.116 326.814 453.912 328.803C448.742 330.758 442.892 331.736 436.363 331.736C427.281 331.736 419.161 329.681 412.002 325.571C404.876 321.461 399.241 315.512 395.098 307.723C390.989 299.934 388.934 290.505 388.934 279.435C388.934 268.332 391.022 258.886 395.198 251.097C399.374 243.308 405.042 237.375 412.201 233.298C419.36 229.189 427.414 227.134 436.363 227.134C442.262 227.134 447.731 227.962 452.769 229.619C457.84 231.277 462.331 233.696 466.242 236.878C470.153 240.027 473.335 243.888 475.787 248.462C478.273 253.036 479.864 258.272 480.56 264.172ZM530.102 331.835C522.379 331.835 515.701 330.195 510.066 326.913C504.465 323.599 500.14 318.992 497.091 313.092C494.041 307.16 492.517 300.282 492.517 292.46C492.517 284.572 494.041 277.678 497.091 271.779C500.14 265.846 504.465 261.239 510.066 257.958C515.701 254.643 522.379 252.986 530.102 252.986C537.825 252.986 544.486 254.643 550.088 257.958C555.722 261.239 560.064 265.846 563.113 271.779C566.163 277.678 567.687 284.572 567.687 292.46C567.687 300.282 566.163 307.16 563.113 313.092C560.064 318.992 555.722 323.599 550.088 326.913C544.486 330.195 537.825 331.835 530.102 331.835ZM530.201 315.429C533.715 315.429 536.648 314.435 539.001 312.446C541.354 310.424 543.128 307.673 544.321 304.193C545.547 300.713 546.16 296.752 546.16 292.311C546.16 287.87 545.547 283.909 544.321 280.429C543.128 276.949 541.354 274.198 539.001 272.176C536.648 270.154 533.715 269.144 530.201 269.144C526.655 269.144 523.672 270.154 521.253 272.176C518.866 274.198 517.06 276.949 515.834 280.429C514.64 283.909 514.044 287.87 514.044 292.311C514.044 296.752 514.64 300.713 515.834 304.193C517.06 307.673 518.866 310.424 521.253 312.446C523.672 314.435 526.655 315.429 530.201 315.429Z" fill="white"/>
<path d="M629.931 237.385C634.598 251.54 543.93 286.004 425.375 311.78C306.82 337.555 205.272 344.881 200.605 330.726C195.938 316.572 288.262 284.202 406.817 258.426C525.372 232.651 625.263 223.23 629.931 237.385ZM214.896 327.619C219.252 340.832 312.493 332.039 423.156 307.979C533.818 283.919 614.376 253.382 610.019 240.17C605.663 226.957 518.042 236.073 407.38 260.132C296.717 284.192 210.539 314.407 214.896 327.619Z" fill="#FFFF00"/>
<path d="M602.227 242.378C606.894 256.533 525.446 286.538 420.309 309.396C315.171 332.255 226.157 339.31 221.49 325.156C216.823 311.001 298.27 280.996 403.408 258.137C508.545 235.279 597.559 228.223 602.227 242.378ZM243.188 320.438C247.324 332.979 319.151 329.634 412.305 309.381C505.459 289.129 573.11 261.86 568.974 249.318C564.839 236.777 496.565 239.828 403.411 260.081C310.257 280.334 239.053 307.897 243.188 320.438Z" fill="#FFD700"/>
<path d="M660.981 232.311C666.183 248.087 563.488 284.825 430.978 313.635C298.467 342.445 186.319 352.416 181.118 336.64C175.916 320.864 279.12 284.72 411.631 255.91C544.142 227.101 655.779 216.535 660.981 232.311ZM188.521 335.03C193.562 350.319 301.755 340.079 430.177 312.159C558.599 284.238 658.619 249.209 653.578 233.92C648.537 218.631 540.344 228.871 411.922 256.792C283.5 284.713 183.48 319.741 188.521 335.03Z" fill="#CBB932"/>
<path d="M466.422 243.312C531.857 231.042 591.311 222.908 634.059 220.377C676.806 217.845 700.031 221.084 699.544 229.508C699.057 237.932 674.889 250.986 631.402 266.316C587.915 281.647 527.971 298.243 462.386 313.11C396.801 327.978 329.893 340.139 273.734 347.398C217.575 354.657 175.863 356.537 156.123 352.699C136.384 348.86 139.916 339.556 166.084 326.464C192.252 313.373 239.331 297.357 298.829 281.305L302.615 281.484C244.953 297.04 199.326 312.562 173.966 325.25C148.606 337.937 145.182 346.954 164.313 350.674C183.443 354.394 223.868 352.572 278.294 345.537C332.721 338.502 397.564 326.717 461.125 312.308C524.687 297.899 582.781 281.815 624.926 266.957C667.072 252.1 690.494 239.448 690.966 231.285C691.438 223.121 668.929 219.982 627.501 222.435C586.073 224.888 528.453 232.772 465.037 244.663L466.422 243.312Z" fill="#FFD700"/>
<path fill-rule="evenodd" clip-rule="evenodd" d="M290.857 305.884L266.247 228.526H242.334L277.483 330.344H305.224L340.324 228.526H316.46L291.801 305.884H290.857ZM414.799 299.424C407.792 300.77 400.293 302.249 393.219 303.703C390.362 296.754 388.934 288.665 388.934 279.435C388.934 268.332 391.022 258.886 395.198 251.097C399.374 243.308 405.042 237.375 412.201 233.298C419.36 229.189 427.414 227.134 436.363 227.134C442.262 227.134 447.731 227.962 452.769 229.619C457.84 231.277 462.331 233.696 466.242 236.878C470.153 240.027 473.335 243.888 475.787 248.462C478.273 253.036 479.864 258.272 480.56 264.172H458.784C458.387 261.355 457.575 258.852 456.348 256.665C455.122 254.444 453.548 252.555 451.625 250.997C449.703 249.44 447.482 248.246 444.963 247.418C442.478 246.589 439.776 246.175 436.86 246.175C431.59 246.175 426.999 247.484 423.088 250.102C419.178 252.688 416.145 256.466 413.99 261.438C411.836 266.376 410.759 272.375 410.759 279.435C410.759 286.693 411.836 292.792 413.99 297.73C414.248 298.312 414.517 298.876 414.799 299.424ZM551.769 259.001C543.66 261.14 518.609 269.48 494.711 277.499C495.36 275.499 496.154 273.592 497.091 271.779C500.14 265.846 504.465 261.239 510.066 257.958C515.701 254.643 522.379 252.986 530.102 252.986C537.825 252.986 544.486 254.643 550.088 257.958C550.662 258.292 551.222 258.64 551.769 259.001ZM373.36 308.023C367.311 309.458 363.167 310.628 362.399 311.281C361.212 312.29 357.167 314.093 352.181 316.084V253.98H373.36V308.023ZM354.717 241.004C356.97 243.093 359.672 244.137 362.82 244.137C365.969 244.137 368.654 243.093 370.874 241.004C373.128 238.883 374.255 236.348 374.255 233.398C374.255 230.481 373.128 227.979 370.874 225.891C368.654 223.77 365.969 222.709 362.82 222.709C359.672 222.709 356.97 223.77 354.717 225.891C352.496 227.979 351.386 230.481 351.386 233.398C351.386 236.348 352.496 238.883 354.717 241.004Z" fill="white"/>
</g>
<defs>
<clipPath id="clip0_607_306">
<rect width="771" height="589" fill="white"/>
</clipPath>
</defs>
</svg>
