<!DOCTYPE svg PUBLIC "-//W3C//DTD SVG 1.1//EN" "http://www.w3.org/Graphics/SVG/1.1/DTD/svg11.dtd">
<!-- Uploaded to: SVG Repo, www.svgrepo.com, Transformed by: SVG Repo Mixer Tools -->
<svg fill="#3498db" width="800px" height="800px" viewBox="0 0 52 52" data-name="Layer 1" id="Layer_1" xmlns="http://www.w3.org/2000/svg">
<g id="SVGRepo_bgCarrier" stroke-width="0"/>
<g id="SVGRepo_tracerCarrier" stroke-linecap="round" stroke-linejoin="round"/>
<g id="SVGRepo_iconCarrier">
<rect height="6" rx="3" transform="translate(52 27.52) rotate(180)" width="6" x="23" y="10.76"/>
<path d="M27,41.24a2,2,0,0,1-2-2v-13H23a2,2,0,0,1,0-4h4a2,2,0,0,1,2,2v15A2,2,0,0,1,27,41.24Z"/>
<path d="M26,52A26,26,0,1,1,52,26,26,26,0,0,1,26,52ZM26,4A22,22,0,1,0,48,26,22,22,0,0,0,26,4Z"/>
</g>
</svg>