<svg id="visual" viewBox="0 0 900 600" width="900" height="600" xmlns="http://www.w3.org/2000/svg" xmlns:xlink="http://www.w3.org/1999/xlink" version="1.1"><g stroke-width="1" stroke-linejoin="bevel"><path d="M404 240L282 228L272 428Z" fill="#00101c" stroke="#00101c"></path><path d="M272 428L434 389L404 240Z" fill="#1d262f" stroke="#1d262f"></path><path d="M480 600L603 472L434 389Z" fill="#43494f" stroke="#43494f"></path><path d="M434 389L669 254L404 240Z" fill="#5e6266" stroke="#5e6266"></path><path d="M272 428L480 600L434 389Z" fill="#50555a" stroke="#50555a"></path><path d="M0 358L150 600L272 428Z" fill="#898989" stroke="#898989"></path><path d="M272 428L150 600L480 600Z" fill="#363d44" stroke="#363d44"></path><path d="M282 228L0 358L272 428Z" fill="#00101c" stroke="#00101c"></path><path d="M603 472L669 254L434 389Z" fill="#5e6266" stroke="#5e6266"></path><path d="M404 240L238 0L282 228Z" fill="#363d44" stroke="#363d44"></path><path d="M526 0L238 0L404 240Z" fill="#29313a" stroke="#29313a"></path><path d="M282 228L0 164L0 358Z" fill="#6c6f71" stroke="#6c6f71"></path><path d="M238 0L0 164L282 228Z" fill="#101b25" stroke="#101b25"></path><path d="M669 254L526 0L404 240Z" fill="#29313a" stroke="#29313a"></path><path d="M480 600L662 600L603 472Z" fill="#1d262f" stroke="#1d262f"></path><path d="M603 472L900 335L669 254Z" fill="#43494f" stroke="#43494f"></path><path d="M0 358L0 600L150 600Z" fill="#6c6f71" stroke="#6c6f71"></path><path d="M238 0L0 0L0 164Z" fill="#7a7c7d" stroke="#7a7c7d"></path><path d="M669 254L751 0L526 0Z" fill="#6c6f71" stroke="#6c6f71"></path><path d="M900 216L751 0L669 254Z" fill="#50555a" stroke="#50555a"></path><path d="M900 600L900 335L603 472Z" fill="#29313a" stroke="#29313a"></path><path d="M900 335L900 216L669 254Z" fill="#101b25" stroke="#101b25"></path><path d="M662 600L900 600L603 472Z" fill="#101b25" stroke="#101b25"></path><path d="M900 216L900 0L751 0Z" fill="#43494f" stroke="#43494f"></path></g></svg>